<svg xmlns="http://www.w3.org/2000/svg" version="1.1" xmlns:xlink="http://www.w3.org/1999/xlink" xmlns:svgjs="http://svgjs.dev/svgjs" width="2000" height="2000" viewBox="0 0 2000 2000"><g transform="matrix(1,0,0,1,-0.28443113772425477,-0.28443113772459583)"><svg viewBox="0 0 334 334" data-background-color="#ed2647" preserveAspectRatio="xMidYMid meet" height="2000" width="2000" xmlns="http://www.w3.org/2000/svg" xmlns:xlink="http://www.w3.org/1999/xlink"><g id="tight-bounds" transform="matrix(1,0,0,1,0.04749999999998522,0.04750000000001364)"><svg viewBox="0 0 333.90454557049503 333.90454557049503" height="333.90454557049503" width="333.90454557049503"><g><svg></svg></g><g><svg viewBox="0 0 333.90454557049503 333.90454557049503" height="333.90454557049503" width="333.90454557049503"><g><path d="M0 166.952c0-92.205 74.747-166.952 166.952-166.952 92.205 0 166.952 74.747 166.953 166.952 0 92.205-74.747 166.952-166.953 166.953-92.205 0-166.952-74.747-166.952-166.953zM166.952 316.63c82.665 0 149.677-67.013 149.678-149.678 0-82.665-67.013-149.677-149.678-149.677-82.665 0-149.677 67.013-149.677 149.677 0 82.665 67.013 149.677 149.677 149.678z" data-fill-palette-color="tertiary" fill="#000000" stroke="transparent"></path><ellipse rx="160.27418187383762" ry="160.27418187383762" cx="166.95227278524752" cy="166.95227278524752" fill="#000000" stroke="transparent" stroke-width="0" fill-opacity="1" data-fill-palette-color="tertiary"></ellipse></g><g transform="matrix(1,0,0,1,107.28195775961197,71.17305217166896)"><svg viewBox="0 0 119.3406300512711 191.55844122715712" height="191.55844122715712" width="119.3406300512711"><g><svg viewBox="0 0 119.3406300512711 191.55844122715712" height="191.55844122715712" width="119.3406300512711"><g><svg viewBox="0 0 119.3406300512711 191.55844122715712" height="191.55844122715712" width="119.3406300512711"><g><svg viewBox="0 0 119.3406300512711 191.55844122715712" height="191.55844122715712" width="119.3406300512711"><g id="textblocktransform"><svg viewBox="0 0 119.3406300512711 191.55844122715712" height="191.55844122715712" width="119.3406300512711" id="textblock"><g><svg viewBox="0 0 119.3406300512711 191.55844122715712" height="191.55844122715712" width="119.3406300512711"><g transform="matrix(1,0,0,1,0,0)"><svg width="119.3406300512711" viewBox="2.45 -33.95 21.400000000000002 34.35000000000001" height="191.55844122715712" data-palette-color="#ed2647"><path d="M23.85-9.45L23.85-9.45Q23.85-4.95 20.63-2.27 17.4 0.4 12.15 0.4L12.15 0.4Q6.45 0.4 2.7-1.75L2.7-1.75 2.7-8.2Q7-5.1 12.1-5.1L12.1-5.1Q14.4-5.1 15.8-6.23 17.2-7.35 17.2-9.25L17.2-9.25Q17.2-10.15 16.85-10.85 16.5-11.55 15.43-12.25 14.35-12.95 13.78-13.25 13.2-13.55 11.4-14.35L11.4-14.35Q10.9-14.6 10.65-14.7L10.65-14.7Q8.8-15.55 7.65-16.23 6.5-16.9 5.15-18.05 3.8-19.2 3.13-20.8 2.45-22.4 2.45-24.45L2.45-24.45Q2.45-28.75 5.63-31.35 8.8-33.95 14.05-33.95L14.05-33.95Q18.8-33.95 22.25-32.3L22.25-32.3 22.25-26.2Q18.5-28.45 14.25-28.45L14.25-28.45Q11.9-28.45 10.58-27.4 9.25-26.35 9.25-24.7 9.25-23.05 10.68-21.98 12.1-20.9 14.95-19.6L14.95-19.6Q16.95-18.7 18.2-18.03 19.45-17.35 20.93-16.15 22.4-14.95 23.13-13.28 23.85-11.6 23.85-9.45Z" opacity="1" transform="matrix(1,0,0,1,0,0)" fill="#ffffff" class="wordmark-text-0" data-fill-palette-color="quaternary" id="text-0"></path></svg></g></svg></g></svg></g></svg></g><g></g></svg></g></svg></g></svg></g></svg></g><defs></defs></svg><rect width="333.90454557049503" height="333.90454557049503" fill="none" stroke="none" visibility="hidden"></rect></g></svg></g></svg>